<svg width="49" height="37" viewBox="0 0 49 37" fill="none" xmlns="http://www.w3.org/2000/svg">
<g id="Group">
<path id="Vector" d="M24.2854 21.6071L47.9807 7.10588C47.9807 6.60336 47.9447 6.10085 47.9087 5.59834C47.7286 2.97807 45.3879 0.752636 42.7591 0.644954C30.4433 0.142437 18.1275 0.142437 5.81165 0.644954C3.18283 0.752636 0.842105 3.01396 0.662049 5.59834C0.662049 6.10085 0.626038 6.60336 0.590027 7.10588L24.2854 21.6071Z" fill="#F0CA5A"/>
<path id="Vector_2" d="M24.2853 25.4832L0.409916 10.8384C0.157838 17.4788 0.229861 24.1551 0.661995 30.7955C0.842051 33.4157 3.18278 35.6412 5.81159 35.7488C18.1274 36.2514 30.4432 36.2514 42.759 35.7488C45.3879 35.6412 47.7286 33.3798 47.9086 30.7955C48.3768 24.1551 48.4488 17.4788 48.1607 10.8384L24.2853 25.4832Z" fill="#F0CA5A"/>
</g>
</svg>
