<svg width="50" height="48" viewBox="0 0 50 48" fill="none" xmlns="http://www.w3.org/2000/svg">
<path id="Vector" d="M49.9082 25.9099C49.8345 26.6637 49.7608 27.3816 49.6502 28.1354C49.2079 31.4017 48.0651 34.4167 46.2589 37.1805C44.2683 40.3032 41.688 42.8876 38.5179 44.8617C36.8591 45.9026 35.0529 46.6923 33.2098 47.3025C32.1776 47.6255 31.4404 47.123 31.4404 46.0462C31.4404 43.9644 31.4404 41.8826 31.4404 39.7648C31.4404 38.5086 31.2929 37.2523 30.5926 36.1396C30.3714 35.8165 30.1133 35.5294 29.8553 35.2063C30.8137 35.0269 31.7721 34.9192 32.7305 34.668C35.2372 34.0578 37.4857 32.981 38.9971 30.8274C40.1029 29.248 40.619 27.4534 40.877 25.5869C41.0614 24.1153 41.0982 22.6795 40.8033 21.2079C40.4716 19.7363 39.8449 18.4441 38.8496 17.2955C38.5916 17.0083 38.5547 16.793 38.6653 16.4341C39.3288 14.4958 39.0339 12.5934 38.2967 10.727C38.2598 10.6193 38.0755 10.5116 37.9281 10.5116C37.0434 10.368 36.2324 10.6193 35.4583 10.9782C34.205 11.5525 33.0254 12.1986 31.7721 12.8088C31.551 12.9165 31.2929 12.9883 31.0718 12.9165C27.2381 11.9832 23.3676 11.9832 19.534 12.9165C19.3128 12.9883 18.981 12.9165 18.7967 12.7729C17.2485 11.8038 15.5897 11.05 13.7835 10.5834C13.7835 10.5834 13.7098 10.5834 13.6729 10.5834C12.5302 10.368 12.3459 10.4757 12.0141 11.5525C11.498 13.2754 11.3875 14.9624 12.0141 16.6853C12.051 16.8289 12.0141 17.0442 11.9035 17.1519C9.87612 19.3773 9.39692 22.0693 9.65495 24.9408C9.8024 26.6637 10.2079 28.3507 11.0188 29.93C12.1247 32.0836 14.0047 33.4117 16.2532 34.2013C17.6909 34.7038 19.1653 34.9551 20.6767 35.3141C19.9026 36.1037 19.4971 37.0369 19.3128 38.0778C19.3128 38.2214 19.2022 38.4009 19.0916 38.4368C17.396 39.047 15.6635 39.4059 13.9678 38.4009C13.1937 37.9343 12.6408 37.2882 12.1984 36.5344C11.498 35.3499 10.5028 34.4885 9.13888 34.1296C8.65968 33.986 8.10675 34.0219 7.59068 34.0578C7.22206 34.0578 7.11147 34.3449 7.36951 34.6321C7.59068 34.8833 7.81185 35.2064 8.10675 35.3499C9.39692 36.0678 10.1342 37.2164 10.7239 38.5086C11.0926 39.2623 11.3875 40.0161 12.0141 40.5904C13.0463 41.5236 14.2996 41.8467 15.6635 41.9184C16.8062 41.9543 17.9489 41.9184 19.1653 41.9184C19.1653 41.9184 19.1653 42.0261 19.1653 42.1338C19.1653 43.3901 19.1653 44.6464 19.2022 45.9385C19.2022 47.1589 18.465 47.6973 17.2485 47.2666C11.0188 45.1489 6.41109 41.1647 3.35155 35.4935C1.06611 31.2222 0.328871 26.6637 0.844939 21.8899C1.39787 16.9007 3.42528 12.5216 6.81658 8.78872C10.3553 4.87633 14.7788 2.25613 20.0132 1.21521C27.6805 -0.292314 34.6474 1.2152 40.7665 6.02493C45.4111 9.65018 48.2863 14.3881 49.429 20.0593C49.6133 20.8849 49.6502 21.7463 49.7976 22.6077C49.7976 22.7872 49.8714 22.9308 49.8714 23.1103V25.9099H49.9082Z" fill="#F0CA5A"/>
</svg>
