<svg width="64" height="71" viewBox="0 0 64 71" fill="none" xmlns="http://www.w3.org/2000/svg">
<g id="Isolation_Mode" clip-path="url(#clip0_15_213)">
<path id="Vector" d="M11.5792 35.3699C11.8518 34.92 12.1987 34.4094 12.62 33.8136C12.9669 33.3273 13.3634 32.8167 13.8218 32.2695C19.7939 25.0476 28.6158 21.923 37.3261 18.8469L39.6802 18.0202L37.5863 10.5308C35.9384 11.1265 35.5791 11.2481 35.2817 11.3575C25.4067 14.8469 15.3954 18.3849 7.84972 27.5157C7.31694 28.1601 6.79655 28.8409 6.27616 29.5583C5.83012 30.1905 5.35929 30.8957 4.88846 31.6738L11.5792 35.382V35.3699Z" fill="url(#paint0_linear_15_213)"/>
<path id="Vector_2" d="M7.7285 63.3955C8.69929 64.472 9.85677 65.5485 11.2134 66.5394C12.57 67.5302 14.1009 68.411 15.8309 69.0961C21.1827 71.2368 27.1941 71.4325 32.8944 69.8056C38.4827 68.2153 43.7473 64.9002 47.8048 59.9948C48.3897 59.2853 48.9622 58.5391 49.5099 57.7562C50.0326 57.0222 50.5304 56.2271 51.0407 55.3708L44.2576 51.7131C43.9091 52.3003 43.5233 52.8875 43.1002 53.4991C42.7019 54.0741 42.2663 54.6246 41.8182 55.1873C38.9556 58.6492 35.2591 60.9979 31.3635 62.0988C27.3684 63.2365 23.1491 63.1019 19.378 61.5973C18.233 61.1324 17.2124 60.5575 16.3163 59.8969C15.4326 59.2486 14.6236 58.5024 13.9142 57.7072L7.74095 63.3833L7.7285 63.3955Z" fill="url(#paint1_linear_15_213)"/>
<path id="Vector_3" d="M48.11 59.8228C52.6357 54.3254 55.4208 47.6255 57.0993 39.1953C58.7033 31.2069 59.3001 21.6478 59.4866 10.0149L59.5612 5.56055L55.1473 6.32135C51.3178 6.98398 48.1224 7.64661 45.3622 8.32152C42.5522 9.00869 40.1029 9.70814 37.8524 10.4444C29.4723 13.1563 22.6961 18.1138 22.3106 27.5379C22.1366 31.8695 23.3302 35.7962 24.5362 39.7598C26.2147 45.2817 27.9181 50.8773 24.3 55.8961C19.3018 62.8292 12.5504 57.614 10.1135 52.3743C7.68895 47.1346 7.92519 39.6861 13.8932 32.4217L7.88789 27.6115C-0.529535 37.8823 -0.753337 48.6317 2.80262 56.3133C7.90032 67.2958 21.776 72.5233 30.6286 60.2646C36.7707 51.7608 34.4705 44.2387 32.2201 36.8025C31.2005 33.4402 30.181 30.1148 30.3053 27.182C30.5291 21.746 35.0922 19.5863 39.6926 18.0892C41.7192 17.4266 43.9572 16.7885 46.5931 16.1504C48.0851 15.7945 49.6766 15.4387 51.3924 15.0828C51.1313 24.237 50.5469 31.8818 49.2663 38.2872C47.8613 45.2694 45.6482 50.7177 42.1171 55.0126L48.1224 59.8228H48.11Z" fill="url(#paint2_linear_15_213)"/>
</g>
<defs>
<linearGradient id="paint0_linear_15_213" x1="43.8766" y1="18.1967" x2="-25.821" y2="35.8243" gradientUnits="userSpaceOnUse">
<stop stop-color="#0A492A"/>
<stop offset="0.04" stop-color="#0F5338"/>
<stop offset="0.16" stop-color="#1B6C59"/>
<stop offset="0.29" stop-color="#258175"/>
<stop offset="0.42" stop-color="#2D918B"/>
<stop offset="0.57" stop-color="#329D9A"/>
<stop offset="0.74" stop-color="#36A3A3"/>
<stop offset="1" stop-color="#37A6A6"/>
</linearGradient>
<linearGradient id="paint1_linear_15_213" x1="53.0948" y1="45.4842" x2="12.3037" y2="72.4411" gradientUnits="userSpaceOnUse">
<stop offset="0.12" stop-color="#125A40"/>
<stop offset="0.21" stop-color="#1B6D5A"/>
<stop offset="0.33" stop-color="#258275"/>
<stop offset="0.45" stop-color="#2D918B"/>
<stop offset="0.59" stop-color="#329D9A"/>
<stop offset="0.76" stop-color="#36A3A3"/>
<stop offset="1" stop-color="#37A6A6"/>
</linearGradient>
<linearGradient id="paint2_linear_15_213" x1="21.882" y1="68.8541" x2="39.2528" y2="-1.47603" gradientUnits="userSpaceOnUse">
<stop stop-color="#0A492A"/>
<stop offset="0.04" stop-color="#0F5338"/>
<stop offset="0.16" stop-color="#1B6C59"/>
<stop offset="0.29" stop-color="#258175"/>
<stop offset="0.42" stop-color="#2D918B"/>
<stop offset="0.57" stop-color="#329D9A"/>
<stop offset="0.74" stop-color="#36A3A3"/>
<stop offset="1" stop-color="#37A6A6"/>
</linearGradient>
<clipPath id="clip0_15_213">
<rect width="63.1932" height="70.2936" fill="white" transform="translate(0.628174 0.590332)"/>
</clipPath>
</defs>
</svg>
