<svg width="47" height="46" viewBox="0 0 47 46" fill="none" xmlns="http://www.w3.org/2000/svg">
<path id="Vector" d="M4.58402 0.125977C17.0963 0.125977 29.6085 0.125977 42.1208 0.125977C42.3739 0.198244 42.6632 0.234389 42.9163 0.306657C44.9053 0.848665 46.0625 2.36629 46.0625 4.49818C46.0625 16.7837 46.0625 29.0331 46.0625 41.3186C46.0625 42.2942 45.8455 43.1975 45.2307 43.9925C44.2905 45.221 43.0248 45.6546 41.5783 45.6546C29.6808 45.6546 17.7834 45.6546 5.88587 45.6546C5.34343 45.6546 4.801 45.6185 4.25856 45.5824C2.48659 45.474 1.07625 44.1009 0.678464 42.3665C0.642301 42.1496 0.606139 41.8967 0.533813 41.6799C0.533813 29.1776 0.533813 16.6753 0.533813 4.17298C0.569976 4.06458 0.6423 3.92003 0.6423 3.81163C0.78695 2.11334 2.23345 0.559594 3.89693 0.306657C4.11391 0.306657 4.33088 0.23438 4.54786 0.198246L4.58402 0.125977ZM25.6306 19.4576C25.6306 19.024 25.6306 18.5904 25.6306 18.1206C25.6306 17.2896 25.1605 16.8198 24.3288 16.8198C22.6653 16.8198 21.038 16.8198 19.3745 16.8198C18.4704 16.8198 18.0003 17.2896 18.0003 18.1929C18.0003 25.239 18.0003 32.2851 18.0003 39.2951C18.0003 40.2346 18.4704 40.7043 19.4468 40.7043C21.038 40.7043 22.6291 40.7043 24.2203 40.7043C25.1967 40.7043 25.6668 40.2346 25.6668 39.2589C25.6668 35.6817 25.6668 32.1044 25.6668 28.4911C25.6668 27.3348 25.9199 26.2146 26.4262 25.1667C27.1495 23.6491 28.5236 22.8903 30.2233 23.0348C31.8144 23.1794 32.9355 24.0827 33.3333 25.7449C33.5502 26.576 33.6587 27.4793 33.6587 28.3104C33.6587 31.996 33.6587 35.6456 33.6587 39.3312C33.6587 40.2346 34.0927 40.7043 35.0329 40.7043C36.6964 40.7043 38.3599 40.7043 40.0233 40.7043C40.9997 40.7043 41.4698 40.2346 41.4698 39.2589C41.4698 34.9952 41.4698 30.6952 41.3975 26.4314C41.3975 24.697 41.1082 22.9626 40.4573 21.3004C39.734 19.4937 38.5768 18.0484 36.7687 17.2173C35.0329 16.4224 33.1886 16.3501 31.3443 16.4946C30.0063 16.603 28.6683 16.9282 27.5834 17.7593C26.9325 18.2652 26.3539 18.8794 25.7391 19.4215L25.6306 19.4576ZM7.15156 28.744C7.15156 32.249 7.15156 35.7178 7.15156 39.2228C7.15156 40.1984 7.62168 40.7043 8.63423 40.7043C10.1169 40.7043 11.5996 40.7043 13.0822 40.7043C14.3479 40.7043 14.7819 40.2707 14.7819 39.006C14.7819 32.1767 14.7819 25.3474 14.7819 18.5181C14.7819 18.4097 14.7819 18.2652 14.7819 18.1568C14.7457 17.3257 14.2394 16.8198 13.4077 16.8198C11.8165 16.8198 10.1892 16.8198 8.59807 16.8198C7.62168 16.8198 7.15156 17.2896 7.15156 18.2652C7.15156 21.7702 7.15156 25.239 7.15156 28.744ZM15.8667 10.0267C15.8667 7.31662 13.6608 5.11245 10.9486 5.11245C8.2726 5.11245 6.03052 7.28049 6.03052 9.99053C6.03052 12.809 8.23644 14.9047 10.9486 14.9047C13.6247 14.9047 15.8306 12.7006 15.8306 10.0267H15.8667Z" fill="#F0CA5A"/>
</svg>
