<svg width="43" height="43" viewBox="0 0 43 43" fill="none" xmlns="http://www.w3.org/2000/svg">
<g id="streamlinehq-interface-file-content-list-          line-48-ico_sX3wdVoJmKALbppI">
<path id="Vector" d="M20.1523 31.4745H29.8179" stroke="white" stroke-width="2.94" stroke-linecap="round" stroke-linejoin="round"/>
<path id="Vector_2" d="M20.1523 23.5663H26.3031" stroke="white" stroke-width="2.94" stroke-linecap="round" stroke-linejoin="round"/>
<path id="Vector_3" d="M14.8802 31.4745H14.0015" stroke="white" stroke-width="2.94" stroke-linecap="round" stroke-linejoin="round"/>
<path id="Vector_4" d="M14.8802 23.5663H14.0015" stroke="white" stroke-width="2.94" stroke-linecap="round" stroke-linejoin="round"/>
<path id="Vector_5" d="M26.6265 3.42705C27.4149 3.6722 29.9453 4.67628 33.6003 8.24076C37.0454 11.6006 38.158 13.9861 38.4849 14.8928C38.5584 16.8623 38.6047 19.1554 38.6047 21.8091C38.6047 28.8952 38.2752 33.4113 37.9748 36.0564C37.7551 37.9909 36.3029 39.4377 34.3692 39.6632C31.8957 39.9519 27.8556 40.2616 21.9096 40.2616C15.9636 40.2616 11.9235 39.9519 9.44997 39.6632C7.51626 39.4377 6.06405 37.9909 5.84436 36.0564C5.54395 33.4113 5.21454 28.8952 5.21454 21.8091C5.21454 14.7229 5.54395 10.2067 5.84436 7.56158C6.06405 5.62719 7.51627 4.1804 9.44997 3.95481C11.9235 3.66623 15.9636 3.35645 21.9096 3.35645C23.6406 3.35645 25.2102 3.3827 26.6265 3.42705Z" stroke="white" stroke-width="2.94" stroke-linecap="round" stroke-linejoin="round"/>
<path id="Vector_6" d="M38.4957 15.3127C36.5143 15.6065 32.9142 15.3688 30.252 15.1189C28.2781 14.9336 26.7256 13.3925 26.5322 11.4193C26.2769 8.81387 26.0395 5.3254 26.3481 3.41998" stroke="white" stroke-width="2.94" stroke-linecap="round" stroke-linejoin="round"/>
</g>
</svg>
