<svg width="56" height="57" viewBox="0 0 56 57" fill="none" xmlns="http://www.w3.org/2000/svg">
<g id="Group 42">
<path id="Vector" d="M53.6392 28.4197C53.6392 42.4865 42.2361 53.8895 28.1693 53.8895C14.1027 53.8895 2.69945 42.4865 2.69945 28.4197" stroke="#F0CA5A" stroke-width="4.72915" stroke-linecap="round" stroke-linejoin="round"/>
<path id="Vector_2" d="M22.2916 3.63125C24.1784 3.18555 26.1463 2.94971 28.1693 2.94971C30.1923 2.94971 32.1601 3.18555 34.047 3.63125" stroke="#F0CA5A" stroke-width="4.72915" stroke-linecap="round" stroke-linejoin="round"/>
<path id="Vector_3" d="M14.6285 13.0797C10.7408 8.30957 6.63601 11.6989 6.58198 15.3526C6.58198 20.792 13.0901 25.2565 14.6285 25.2565C16.1668 25.2565 22.6749 20.792 22.6749 15.3526C22.6209 11.6989 18.5161 8.30957 14.6285 13.0797Z" stroke="#F0CA5A" stroke-width="4.72915" stroke-linecap="round" stroke-linejoin="round"/>
<path id="Vector_4" d="M41.7079 13.0797C45.5954 8.30957 49.7003 11.6989 49.754 15.3526C49.754 20.792 43.2463 25.2565 41.7079 25.2565C40.1695 25.2565 33.6613 20.792 33.6613 15.3526C33.7153 11.6989 37.8201 8.30957 41.7079 13.0797Z" stroke="#F0CA5A" stroke-width="4.72915" stroke-linecap="round" stroke-linejoin="round"/>
<path id="Vector_5" d="M15.2383 32.3379C17.1975 39.3911 25.0344 43.7014 32.0875 41.7421C36.3978 40.1748 39.9244 36.6482 41.1001 32.3379" stroke="#F0CA5A" stroke-width="4.72915" stroke-linecap="round" stroke-linejoin="round"/>
</g>
</svg>
