<svg width="43" height="43" viewBox="0 0 43 43" fill="none" xmlns="http://www.w3.org/2000/svg">
<g id="streamlinehq-travel-map-location-pin-favorite-heart-&#10;          line-48-ico_oGHaoodMHr6rqHBv">
<path id="Vector" d="M37.6115 18.7724C37.6115 29.9801 25.8707 37.9702 22.6122 39.9721C22.0963 40.2889 21.4683 40.2889 20.9524 39.9721C17.6939 37.9702 5.95303 29.9801 5.95303 18.7724C5.95303 10.1478 13.0401 3.15619 21.7823 3.15619C30.5245 3.15619 37.6115 10.1478 37.6115 18.7724Z" stroke="white" stroke-width="2.94" stroke-linecap="round" stroke-linejoin="round"/>
<path id="Vector_2" d="M29.6459 21.2203C30.5081 19.844 30.7887 18.1388 30.4136 16.5533C29.6123 12.9419 25.1751 11.4661 22.4112 13.8863C22.1923 14.0767 21.9976 14.2962 21.7823 14.515C21.5669 14.2962 21.3722 14.0767 21.1533 13.8863C18.3894 11.4661 13.9522 12.9419 13.1509 16.5533C12.7759 18.1388 13.0564 19.844 13.9186 21.2203C15.3188 23.4587 17.5146 25.2374 19.7202 26.8422C20.943 27.732 22.6216 27.732 23.8444 26.8422C26.0499 25.2374 28.2457 23.4587 29.6459 21.2203Z" stroke="white" stroke-width="2.94" stroke-linecap="round" stroke-linejoin="round"/>
</g>
</svg>
