<svg width="56" height="55" viewBox="0 0 56 55" fill="none" xmlns="http://www.w3.org/2000/svg">
<g id="Group 41">
<path id="Vector" d="M53.0514 40.7227V48.2893C53.0514 49.2926 52.6456 50.2551 51.9235 50.9645C51.2015 51.6739 50.2218 52.0726 49.2006 52.0726H41.4988" stroke="#F0CA5A" stroke-width="4.72915" stroke-linecap="round" stroke-linejoin="round"/>
<path id="Vector_2" d="M41.4988 2.8894H49.2006C50.2218 2.8894 51.2015 3.288 51.9235 3.99751C52.6456 4.70702 53.0514 5.66931 53.0514 6.67272V14.2394" stroke="#F0CA5A" stroke-width="4.72915" stroke-linecap="round" stroke-linejoin="round"/>
<path id="Vector_3" d="M2.98999 14.2394V6.67272C2.98999 5.66931 3.39571 4.70702 4.11789 3.99751C4.84007 3.288 5.81954 2.8894 6.84087 2.8894H14.5426" stroke="#F0CA5A" stroke-width="4.72915" stroke-linecap="round" stroke-linejoin="round"/>
<path id="Vector_4" d="M14.5426 52.0726H6.84087C5.81954 52.0726 4.84007 51.6739 4.11789 50.9645C3.39571 50.2551 2.98999 49.2926 2.98999 48.2893V40.7227" stroke="#F0CA5A" stroke-width="4.72915" stroke-linecap="round" stroke-linejoin="round"/>
<path id="Vector_5" d="M28.0197 25.5894C32.2732 25.5894 35.7214 22.2017 35.7214 18.0228C35.7214 13.8439 32.2732 10.4562 28.0197 10.4562C23.7661 10.4562 20.318 13.8439 20.318 18.0228C20.318 22.2017 23.7661 25.5894 28.0197 25.5894Z" stroke="#F0CA5A" stroke-width="4.72915" stroke-linecap="round" stroke-linejoin="round"/>
<path id="Vector_6" d="M42.6671 42.6146C41.6721 39.5664 39.7177 36.9078 37.0857 35.0214C34.4537 33.1351 31.2799 32.1187 28.0219 32.1187C24.764 32.1187 21.5902 33.1351 18.9581 35.0214C16.326 36.9078 14.3717 39.5664 13.3768 42.6146H42.6671Z" stroke="#F0CA5A" stroke-width="4.72915" stroke-linecap="round" stroke-linejoin="round"/>
</g>
</svg>
