<svg width="40" height="39" viewBox="0 0 40 39" fill="none" xmlns="http://www.w3.org/2000/svg">
<path id="Vector" d="M0.646627 9.88376C0.756183 6.84934 5.10189 1.06608 7.76775 0.244995C8.4616 0.0308001 9.41108 0.102199 10.0319 0.423491C12.6247 1.81576 15.6558 9.74097 14.0489 12.2399C12.5152 14.6318 12.9534 16.4524 14.5237 17.9875C18.4312 21.843 21.024 28.8043 28.985 24.1277C30.6649 23.1282 38.5164 27.412 39.6484 29.2327C40.1232 30.0181 40.0502 30.7321 39.7215 31.4818C38.1147 35.4801 31.7239 39.2999 27.7799 38.0147C14.7428 33.8022 6.08789 24.9845 1.04833 12.6326C0.646626 11.6687 0.683145 10.5263 0.610107 9.88376H0.646627Z" fill="#F0CA5A"/>
</svg>
