<svg width="71" height="89" viewBox="0 0 71 89" fill="none" xmlns="http://www.w3.org/2000/svg">
<g id="logo.2-37f748b73943 1" clip-path="url(#clip0_26_315)">
<ellipse id="Ellipse 7" cx="35.7994" cy="41.0167" rx="31.6969" ry="31.6969" fill="white"/>
<path id="Vector" d="M35.7847 5.46118C16.4607 5.46118 0.795013 21.4664 0.795013 41.2109C0.795013 60.9554 16.4607 76.9606 35.7847 76.9606C55.1086 76.9606 70.7729 60.9554 70.7729 41.2109C70.7729 21.4664 55.1114 5.46118 35.7847 5.46118ZM56.3954 51.2487C56.3973 53.0153 55.9798 54.7559 55.1787 56.3214L38.0593 38.8294L33.5016 43.4848L54.5908 65.0273L52.333 67.3371L52.354 67.3586C50.7593 65.7288 48.8659 64.436 46.782 63.5541C44.6981 62.6721 42.4646 62.2183 40.209 62.2185H25.9087C23.0617 62.2185 20.3312 61.0629 18.3181 59.006C16.3049 56.949 15.174 54.1592 15.174 51.2502V31.0626C15.174 28.1536 16.3049 25.3638 18.3181 23.3068C20.3312 21.2499 23.0617 20.0943 25.9087 20.0943H45.6606C48.5076 20.0943 51.2381 21.2499 53.2512 23.3068C55.2644 25.3638 56.3954 28.1536 56.3954 31.0626V51.2487Z" fill="#0099CC"/>
</g>
<defs>
<clipPath id="clip0_26_315">
<rect width="70.0088" height="88.2" fill="white" transform="translate(0.795029 0.5)"/>
</clipPath>
</defs>
</svg>
