<svg width="36" height="34" viewBox="0 0 36 34" fill="none" xmlns="http://www.w3.org/2000/svg">
<g id="streamlinehq-money-graph-bar-increase-          flat-48-ico_IJNhJVg3oyMWMQX7">
<path id="Vector" d="M1.79187 27.6824C1.79187 29.047 1.84393 29.9915 1.9123 30.6465C2.05653 32.0286 3.19769 32.8201 4.44744 32.8609C4.93847 32.8768 5.58823 32.8887 6.43666 32.8887C7.28509 32.8887 7.93486 32.8768 8.42585 32.8609C9.67565 32.8201 10.8168 32.0286 10.961 30.6465C11.0294 29.9915 11.0815 29.047 11.0815 27.6824C11.0815 26.3179 11.0294 25.3734 10.961 24.7184C10.8168 23.3363 9.67565 22.5448 8.42585 22.504C7.93486 22.4881 7.28509 22.4762 6.43666 22.4762C5.58823 22.4762 4.93847 22.4881 4.44744 22.504C3.19768 22.5448 2.05653 23.3363 1.9123 24.7184C1.84393 25.3734 1.79187 26.3179 1.79187 27.6824Z" fill="#8FBFFA"/>
<path id="Vector_2" d="M24.6585 22.8233C24.6585 26.7704 24.7527 29.0112 24.8469 30.2688C24.9514 31.6639 26.0007 32.7525 27.4923 32.8412C27.967 32.8694 28.5622 32.8887 29.3033 32.8887C30.0444 32.8887 30.6397 32.8694 31.1144 32.8412C32.606 32.7525 33.6552 31.6639 33.7598 30.2688C33.8539 29.0112 33.9481 26.7704 33.9481 22.8233C33.9481 18.8761 33.8539 16.6353 33.7598 15.3778C33.6552 13.9826 32.606 12.894 31.1144 12.8053C30.6397 12.7771 30.0444 12.7578 29.3033 12.7578C28.5622 12.7578 27.967 12.7771 27.4923 12.8053C26.0007 12.894 24.9514 13.9826 24.8469 15.3778C24.7527 16.6353 24.6585 18.8761 24.6585 22.8233Z" fill="#8FBFFA"/>
<path id="Vector_3" d="M13.2252 25.6C13.2252 27.968 13.2957 29.4623 13.3771 30.4019C13.5002 31.8234 14.6207 32.7941 16.036 32.8544C16.5099 32.8746 17.112 32.8887 17.87 32.8887C18.628 32.8887 19.2301 32.8746 19.704 32.8544C21.1194 32.7941 22.2398 31.8234 22.363 30.4018C22.4443 29.4623 22.5148 27.968 22.5148 25.6C22.5148 23.2319 22.4443 21.7376 22.363 20.7981C22.2398 19.3766 21.1194 18.4058 19.704 18.3455C19.2301 18.3253 18.628 18.3112 17.87 18.3112C17.112 18.3112 16.5099 18.3253 16.036 18.3455C14.6207 18.4058 13.5002 19.3766 13.3771 20.7981C13.2957 21.7376 13.2252 23.2319 13.2252 25.6Z" fill="#8FBFFA"/>
<path id="Vector_4" d="M30.855 1.66832C29.8431 1.62733 27.7113 1.62204 25.2847 2.10561C23.8531 2.39088 23.4652 4.06254 24.4146 4.98484L25.695 6.22864C25.2868 6.58834 24.7603 7.05989 24.1651 7.6107C22.78 8.89255 21.0003 10.6246 19.4742 12.3858C19.4549 12.4081 19.4196 12.4289 19.3657 12.4275C19.3407 12.4268 19.3228 12.4209 19.3132 12.4162C19.3059 12.4126 19.3011 12.4089 19.2949 12.4007C18.6465 11.5191 17.7878 10.3888 16.8786 9.29635C15.9965 8.23629 14.4188 7.96327 13.216 8.75538C11.4963 9.88792 7.92571 12.4982 3.93166 16.9353C3.68917 17.2047 3.44511 17.4808 3.1998 17.7638C2.69135 18.3502 2.76858 19.2261 3.3723 19.72C3.97603 20.2139 4.87762 20.1389 5.38608 19.5525C5.61988 19.2828 5.85242 19.0197 6.08338 18.763C9.80942 14.6238 13.1239 12.181 14.7203 11.1196C15.5578 12.1305 16.3554 13.1803 16.9693 14.0149C18.1115 15.5678 20.4448 15.5775 21.661 14.1739C23.0905 12.5241 24.7857 10.8713 26.1367 9.62108C26.7643 9.0402 27.3128 8.55074 27.7186 8.19443L29.088 9.52473C30.0374 10.447 31.7582 10.0701 32.0519 8.67951C32.5497 6.32217 32.5442 4.25134 32.502 3.26832C32.4646 2.39683 31.7521 1.70466 30.855 1.66832Z" fill="#F0CA5A"/>
</g>
</svg>
