<svg width="36" height="34" viewBox="0 0 36 34" fill="none" xmlns="http://www.w3.org/2000/svg">
<g id="streamlinehq-interface-favorite-star-5-          flat-48-ico_Q2Z62USep8rmqJps">
<path id="Vector" fill-rule="evenodd" clip-rule="evenodd" d="M21.7252 5.57672C22.3161 3.83164 24.8573 3.83165 25.4481 5.57672L27.2182 10.8055L32.6008 12.5251C34.3972 13.099 34.3972 15.5676 32.6008 16.1416L27.2182 17.8612L25.4481 23.09C24.8573 24.835 22.3161 24.835 21.7252 23.09L19.9551 17.8612L14.5725 16.1416C12.7761 15.5676 12.7761 13.099 14.5725 12.5251L19.9551 10.8055L21.7252 5.57672Z" fill="#F0CA5A"/>
<path id="Vector_2" d="M13.8643 17.9659C13.3213 16.3619 10.9854 16.3619 10.4424 17.9659L9.13852 21.8172L5.17404 23.0838C3.52284 23.6113 3.52284 25.8804 5.17404 26.4079L9.13852 27.6745L10.4424 31.5258C10.9854 33.1298 13.3213 33.1298 13.8643 31.5258L15.1682 27.6745L19.1327 26.4079C20.7839 25.8804 20.7839 23.6113 19.1327 23.0838L15.1682 21.8172L13.8643 17.9659Z" fill="#8FBFFA"/>
<path id="Vector_3" d="M10.9367 2.64553C10.4156 1.10644 8.17439 1.10644 7.65332 2.64553L6.49677 6.06168L2.98014 7.18519C1.39578 7.69137 1.39578 9.86855 2.98014 10.3747L6.49677 11.4982L7.65332 14.9144C8.17439 16.4535 10.4156 16.4535 10.9367 14.9144L12.0932 11.4982L15.6098 10.3747C17.1942 9.86855 17.1942 7.69137 15.6098 7.18519L12.0932 6.06168L10.9367 2.64553Z" fill="#8FBFFA"/>
</g>
</svg>
