<svg width="36" height="34" viewBox="0 0 36 34" fill="none" xmlns="http://www.w3.org/2000/svg">
<g id="streamlinehq-computer-robot-cyborg-2-          flat-48-ico_eOphPM13UGyZyRzB">
<path id="Vector" fill-rule="evenodd" clip-rule="evenodd" d="M17.87 6.00333C18.6594 6.00333 19.2992 6.6249 19.2992 7.39166V12.945C19.2992 13.7118 18.6594 14.3333 17.87 14.3333C17.0807 14.3333 16.4409 13.7118 16.4409 12.945V7.39166C16.4409 6.6249 17.0807 6.00333 17.87 6.00333Z" fill="#2859C5"/>
<path id="Vector_2" d="M17.87 1.83832C15.8968 1.83832 14.2971 3.39227 14.2971 5.30915C14.2971 7.22604 15.8968 8.77998 17.87 8.77998C19.8433 8.77998 21.4429 7.22604 21.4429 5.30915C21.4429 3.39227 19.8433 1.83832 17.87 1.83832Z" fill="#2859C5"/>
<path id="Vector_3" d="M17.87 32.7287C22.0995 32.7287 25.1494 32.6167 27.1645 32.5018C29.4858 32.3695 31.3646 30.6915 31.5619 28.3926C31.6921 26.8743 31.8044 24.7569 31.8044 21.9691C31.8044 19.1814 31.6921 17.064 31.5619 15.5457C31.3646 13.2468 29.4858 11.5688 27.1645 11.4365C25.1494 11.3216 22.0995 11.2096 17.87 11.2096C13.6405 11.2096 10.5906 11.3216 8.5755 11.4365C6.25423 11.5688 4.3754 13.2468 4.17819 15.5457C4.04793 17.064 3.93564 19.1814 3.93564 21.9691C3.93564 24.7569 4.04794 26.8743 4.17819 28.3926C4.3754 30.6915 6.25423 32.3695 8.57557 32.5018C10.5906 32.6167 13.6405 32.7287 17.87 32.7287Z" fill="#F0CA5A"/>
<path id="Vector_4" fill-rule="evenodd" clip-rule="evenodd" d="M14.2971 18.4983C14.2971 17.7315 13.6572 17.11 12.8679 17.11C12.0786 17.11 11.4388 17.7315 11.4388 18.4983V19.1925C11.4388 19.9593 12.0786 20.5808 12.8679 20.5808C13.6572 20.5808 14.2971 19.9593 14.2971 19.1925V18.4983ZM22.8721 17.11C22.0828 17.11 21.4429 17.7315 21.4429 18.4983V19.1925C21.4429 19.9593 22.0828 20.5808 22.8721 20.5808C23.6614 20.5808 24.3013 19.9593 24.3013 19.1925V18.4983C24.3013 17.7315 23.6614 17.11 22.8721 17.11ZM12.6021 24.4298C13.2921 23.7979 14.0775 24.0783 14.7164 24.561C14.824 24.6423 15.0075 24.7666 15.2703 24.896C15.7896 25.1519 16.6412 25.44 17.87 25.44C19.0988 25.44 19.9504 25.1519 20.4697 24.896C20.7325 24.7666 20.916 24.6423 21.0236 24.561C21.6625 24.0783 22.4479 23.7979 23.1379 24.4298C23.7319 24.9739 23.7134 25.8983 23.1465 26.4428C23.1236 26.4648 23.0949 26.4916 23.0601 26.5226C22.9906 26.5845 22.897 26.6632 22.7785 26.7528C22.5415 26.9318 22.2044 27.1546 21.7628 27.3723C20.8733 27.8106 19.5812 28.2167 17.87 28.2167C16.1588 28.2167 14.8667 27.8106 13.9772 27.3723C13.5356 27.1546 13.1985 26.9318 12.9615 26.7528C12.8431 26.6632 12.7494 26.5845 12.6799 26.5226C12.0712 25.98 11.952 25.0253 12.6021 24.4298Z" fill="#2859C5"/>
</g>
</svg>
