<svg width="57" height="55" viewBox="0 0 57 55" fill="none" xmlns="http://www.w3.org/2000/svg">
<path id="Union" d="M53.43 14.3127C53.3544 13.9092 53.1933 13.5258 52.957 13.1874C52.7208 12.8491 52.4147 12.5634 52.0585 12.3488L44.2217 20.0505C43.8561 20.4232 43.418 20.7197 42.9333 20.9222C42.4486 21.1247 41.927 21.229 41.4004 21.229C40.8738 21.229 40.3526 21.1247 39.8677 20.9222C39.383 20.7197 38.9447 20.4232 38.5792 20.0505L35.6012 17.4319C34.8832 16.7121 34.4811 15.7443 34.4811 14.7363C34.4811 13.7284 34.8832 12.7606 35.6012 12.0407L43.438 4.33896C43.2671 3.94439 43.0101 3.59155 42.6852 3.30541C42.36 3.01927 41.9752 2.80682 41.5571 2.68309C38.8228 2.1472 35.9903 2.37659 33.3821 3.34514C30.7738 4.3137 28.4947 5.98248 26.8042 8.16154C25.1136 10.3406 24.0796 12.9424 23.8199 15.6706C23.5766 18.2263 24.0218 20.7967 25.1065 23.1251L4.07736 43.7915C2.525 45.3172 2.55074 47.7983 4.13444 49.2925L6.33182 51.3658C7.86448 52.8118 10.2906 52.7941 11.8011 51.3253L33.0717 30.648C35.3723 31.5817 37.8783 31.9369 40.3616 31.6753C43.1073 31.386 45.7177 30.3539 47.9023 28.6938C50.0872 27.0337 51.7604 24.8106 52.736 22.2717C53.7121 19.7329 53.9523 16.9777 53.43 14.3127Z" stroke="#F0CA5A" stroke-width="4.72915" stroke-linecap="round" stroke-linejoin="round"/>
</svg>
