<svg width="12" height="13" viewBox="0 0 12 13" fill="none" xmlns="http://www.w3.org/2000/svg">
<path id="Vector" d="M1.18376 0.774386C0.581977 0.570307 0.0279563 1.12423 0.257997 1.70759C0.810354 3.10834 1.48214 4.49751 1.79896 5.13461C1.9298 5.39771 2.16026 5.59839 2.43936 5.69947L4.4053 6.41148L2.43936 7.1235C2.16026 7.2246 1.9298 7.42526 1.79896 7.68838C1.48214 8.32546 0.810354 9.71465 0.257997 11.1154C0.0279563 11.6988 0.581977 12.2527 1.18376 12.0486C3.20589 11.3628 7.47192 9.74296 11.1443 7.2018C11.7057 6.81334 11.7057 6.00963 11.1443 5.6212C7.47192 3.08001 3.20586 1.46014 1.18376 0.774386Z" fill="#F0CA5A"/>
</svg>
