<svg width="45" height="55" viewBox="0 0 45 55" fill="none" xmlns="http://www.w3.org/2000/svg">
<g id="Group 38">
<path id="Vector 107" d="M35.4362 51.8892C41.0723 46.4836 41.4539 39.5567 42.1459 35.4084C43.3393 28.2574 35.4358 25.3221 26.6883 23.6566L27.812 7.68161C27.9872 5.18939 25.9768 3.07291 23.434 3.07288C21.2071 3.07284 19.3332 4.71144 19.075 6.8845L17.2517 21.96L13.2353 7.62838C12.5272 5.10158 9.8543 3.54674 7.25904 4.15189C4.66797 4.75604 3.12881 7.28622 3.81473 9.81378L9.40093 30.3983" stroke="#F0CA5A" stroke-width="4.72915" stroke-linecap="round" stroke-linejoin="round"/>
<path id="Vector 536" d="M11.0803 51.8892C3.46905 48.9076 2.2802 41.3353 2.62774 36.047C2.84621 32.7224 5.91901 30.4069 9.30998 30.4069H21.6007C23.8191 30.4069 25.6174 32.1736 25.6174 34.3531C25.6174 36.1781 24.3436 37.765 22.5373 38.1905L15.5798 39.8295C17.7719 39.4765 22.7792 41.6501 22.9638 46.3917" stroke="#F0CA5A" stroke-width="4.72915" stroke-linecap="round" stroke-linejoin="round"/>
</g>
</svg>
