<svg width="91" height="32" viewBox="0 0 91 32" fill="none" xmlns="http://www.w3.org/2000/svg">
<g id="&#216;&#177;&#217;&#136;&#216;&#180;&#217;&#134;.8a28e7441ca466aafbf291ac6943f038 1">
<path id="Vector" d="M69.7935 31.2808C68.5016 31.2726 67.2146 31.1248 65.9547 30.8401L64.3769 30.4837L65.087 27.3335L66.6649 27.6899C68.9259 28.1996 71.9431 28.303 73.6361 27.0614C74.4997 26.4292 74.9719 25.471 75.0833 24.1259C73.4023 24.6754 71.638 24.9271 69.8703 24.8694C67.5363 24.7621 66.2234 23.9267 65.6475 23.4361C64.3424 22.3208 63.6207 20.3703 63.6706 18.0288C63.8433 10.0691 69.045 10.0691 70.7262 10.0691C75.2445 10.0691 77.7359 12.3685 78.135 16.86C78.4076 19.9947 78.4653 22.7463 78.2886 24.4057C78.0391 26.7702 77.137 28.491 75.5323 29.6635C74.0928 30.7367 72.1505 31.2808 69.7935 31.2808ZM70.7417 13.2959C67.6246 13.2959 67.0487 14.8288 66.8798 18.4389C66.8298 19.4736 67.0563 20.2592 67.5515 20.7804C68.2924 21.5469 69.5286 21.6618 70.5189 21.6656C72.1137 21.6559 73.6867 21.2948 75.1255 20.6078C75.1255 19.7187 75.0526 17.956 74.9297 17.1243C74.5497 14.5873 73.7973 13.2959 70.7417 13.2959Z" fill="white"/>
<path id="Vector_2" d="M11.2252 31.1041C7.65132 31.1041 4.75688 29.9775 2.86053 27.8468C0.902752 25.6394 0.0658994 22.4125 0.50352 18.7604C0.737684 16.806 0.994882 14.9089 1.15611 13.6634L1.23673 13.1959L4.43058 13.6749L4.36533 14.1463C4.19257 15.3765 3.93922 17.2428 3.71272 19.1551C3.38644 21.8798 3.94305 24.21 5.27895 25.7122C6.61484 27.2144 8.5611 27.8889 11.2252 27.8889C16.657 27.8889 19.7742 25.1641 19.7742 20.4121C19.7742 18.7259 19.7742 16.986 19.3173 10.9885L19.2827 10.5133L22.5151 10.222L22.5418 10.7202C22.6186 12.188 22.9065 15.9245 23.0333 16.986C23.3673 19.7491 23.9008 20.5002 27.2981 20.8988C31.3212 21.3701 50.1848 21.351 60.3884 20.8681L60.8682 20.8414L61.014 24.0681H60.5342C50.323 24.5164 34.0467 24.6429 27.0333 24.1102C25.2061 23.9722 23.8279 23.6121 22.7453 22.9875C21.682 28.0843 17.4056 31.1041 11.2252 31.1041Z" fill="white"/>
<path id="Vector_3" d="M82.4651 31.1276C81.8314 31.1274 81.1988 31.0787 80.5726 30.9819L78.9719 30.7444L79.4671 27.552L81.0639 27.7898C82.2156 27.966 84.3807 28.081 85.8202 26.9235C86.7492 26.1763 87.2789 24.9423 87.3863 23.2561C87.5806 20.471 87.5561 17.6753 87.3134 14.894L87.1829 12.9779L90.4074 12.7556L90.538 14.6718C90.7872 17.5975 90.8078 20.5381 90.5995 23.4669C90.4268 26.0881 89.4977 28.1001 87.8317 29.4376C86.4575 30.5451 84.6033 31.1276 82.4651 31.1276Z" fill="white"/>
<path id="Vector_4" d="M11.9507 19.167C11.5945 19.1678 11.246 19.0629 10.9494 18.866C10.6529 18.6688 10.4215 18.3885 10.2847 18.0601C10.1478 17.7317 10.1116 17.3703 10.1806 17.0213C10.2497 16.6724 10.4208 16.3518 10.6725 16.1C10.9241 15.8483 11.2449 15.6767 11.5942 15.6071C11.9436 15.5374 12.3058 15.5728 12.635 15.7087C12.9642 15.8446 13.2456 16.075 13.4436 16.3706C13.6416 16.6663 13.7473 17.014 13.7473 17.3697C13.7473 17.8456 13.5581 18.3022 13.2213 18.6391C12.8845 18.9761 12.4276 19.1659 11.9507 19.167Z" fill="white"/>
<path id="Vector_5" d="M42.1773 5.63102C41.4517 5.63001 40.7561 5.34181 40.243 4.82959C39.7299 4.31739 39.4412 3.62298 39.4401 2.8986C39.4397 2.54202 39.5102 2.18888 39.6481 1.85988C39.7858 1.53087 39.9878 1.23258 40.2425 0.982459C40.6243 0.601485 41.1105 0.341752 41.6398 0.235931C42.1692 0.130109 42.7181 0.182925 43.2174 0.387736C43.7168 0.592545 44.1444 0.940203 44.4463 1.38697C44.7482 1.83374 44.9109 2.35967 44.9142 2.8986C44.9133 3.62298 44.6246 4.31739 44.1115 4.82959C43.5984 5.34181 42.9029 5.63001 42.1773 5.63102Z" fill="#F8BC45"/>
<path id="Vector_6" d="M34.4767 8.45167C33.9354 8.45167 33.4062 8.29141 32.9562 7.99116C32.506 7.69092 32.1552 7.26417 31.948 6.76489C31.7408 6.2656 31.6866 5.7162 31.7922 5.18617C31.8978 4.65613 32.1586 4.16926 32.5414 3.78712C32.9241 3.40499 33.4118 3.14475 33.9427 3.03932C34.4737 2.93389 35.0241 2.988 35.5241 3.1948C36.0243 3.40162 36.4518 3.75184 36.7526 4.20118C37.0532 4.65053 37.2138 5.17881 37.2138 5.71923C37.2127 6.44361 36.9241 7.13802 36.411 7.65024C35.898 8.16244 35.2023 8.45064 34.4767 8.45167Z" fill="#F8BC45"/>
<path id="Vector_7" d="M30.7147 15.2658C30.0799 15.27 29.4632 15.0541 28.97 14.6548C28.4768 14.2555 28.1379 13.6977 28.0109 13.0767C27.8839 12.4556 27.9769 11.8098 28.274 11.2496C28.5709 10.6894 29.0537 10.2495 29.6394 10.005C30.2252 9.76056 30.8779 9.72672 31.4859 9.90929C32.0939 10.0918 32.6196 10.4795 32.9731 11.006C33.3267 11.5325 33.4861 12.1652 33.4244 12.796C33.3625 13.4269 33.0832 14.0167 32.6341 14.4648C32.3826 14.7176 32.0836 14.9185 31.7542 15.0559C31.4249 15.1933 31.0717 15.2646 30.7147 15.2658Z" fill="#F8BC45"/>
<path id="Vector_8" d="M53.6397 15.2657C53.1888 15.2684 52.7443 15.1599 52.3455 14.9499C51.9469 14.7398 51.6063 14.4346 51.3541 14.0615C51.1019 13.6884 50.946 13.2589 50.9002 12.8111C50.8544 12.3634 50.92 11.9113 51.0913 11.4949C51.2627 11.0786 51.5344 10.711 51.8824 10.4248C52.2302 10.1385 52.6436 9.94248 53.0856 9.8541C53.5277 9.76572 53.9849 9.78773 54.4163 9.91818C54.8478 10.0486 55.2404 10.2834 55.559 10.6018C55.9406 10.983 56.2007 11.4684 56.3068 11.9968C56.4128 12.5253 56.36 13.0732 56.1548 13.5717C55.9496 14.0702 55.6013 14.497 55.1538 14.7984C54.7062 15.0999 54.1794 15.2624 53.6397 15.2657Z" fill="#F8BC45"/>
<path id="Vector_9" d="M49.8778 8.45167C49.3364 8.45167 48.8072 8.29141 48.3572 7.99116C47.907 7.69092 47.5562 7.26417 47.349 6.76489C47.142 6.2656 47.0878 5.7162 47.1934 5.18617C47.299 4.65613 47.5596 4.16926 47.9423 3.78712C48.3252 3.40499 48.8128 3.14475 49.3438 3.03932C49.8747 2.93389 50.4251 2.988 50.9251 3.1948C51.4253 3.40162 51.8528 3.75184 52.1536 4.20118C52.4544 4.65053 52.6148 5.17881 52.6148 5.71923C52.6139 6.44361 52.3251 7.13802 51.8121 7.65024C51.299 8.16244 50.6034 8.45064 49.8778 8.45167Z" fill="#F8BC45"/>
</g>
</svg>
